PathFileType	4	(X/Y/Z)	OpenSim_Sub04_EMGBaseline_Gyro.trc
DataRate	CameraRate	NumFrames	NumMarkers	Units	OrigDataRate	OrigDataStartFrame	OrigNumFrames
100	100	41	8	m	100	1986	7941
Frame#	Time	torso_imu_offset_imu	pelvis_imu_offset_imu	tibia_r_imu_offset_imu	femur_r_imu_offset_imu	tibia_l_imu_offset_imu	femur_l_imu_offset_imu	toes_r_imu_offset_imu	toes_l_imu_offset_imu
				X1	Y1	Z1	X2	Y2	Z2	X3	Y3	Z3	X4	Y4	Z4	X5	Y5	Z5	X6	Y6	Z6	X7	Y7	Z7	X8		Y8	Z8	

1986	19.85000000	0.52223463	-0.32889199	-0.30577798	-0.36659767	-0.06704176	-0.06945087	-0.04655103	0.02288651	-1.78623347	-0.22209604	0.40709473	-0.04353674	-1.26658961	-0.67847438	0.35918105	0.04594791	-0.88080399	0.40330400	-0.13722858	-2.50414830	-0.45608010	0.07387590	-2.58915657	0.01993547
1987	19.86000000	0.53849282	-0.33036809	-0.33461208	-0.35212074	-0.11637816	-0.03697293	-0.06864892	-0.00305457	-1.88095250	-0.19570926	0.39181660	0.03603183	-1.44782766	-0.48746575	0.38225448	0.03839316	-1.03714121	0.51585366	-0.16460933	-2.75503485	-0.55129696	0.40411942	-2.43188520	0.40291551
1988	19.87000000	0.53258491	-0.32467051	-0.34853462	-0.29920253	-0.18872057	-0.01274929	-0.12393509	-0.07440373	-1.98685266	-0.13012721	0.39147782	0.12699651	-1.25472151	-0.39948171	0.59365092	0.07201948	-1.09014051	0.59213734	-0.01918415	-3.14651900	-0.75882429	0.84664663	-2.01026612	0.66554450
1989	19.88000000	0.53982166	-0.31113590	-0.37387471	-0.27064227	-0.27624944	-0.01162940	-0.13785743	-0.16632870	-2.10259177	-0.05774175	0.43650685	0.24068008	-0.99629499	-0.36907888	0.84633586	0.09330735	-1.01641686	0.67132443	0.44634921	-3.67671967	-1.09244376	0.99293436	-1.72588879	0.73463293
1990	19.89000000	0.55817380	-0.27265750	-0.40532063	-0.21752434	-0.34263173	-0.02661480	0.03054449	-0.23204772	-2.19930781	-0.02896856	0.51635755	0.40530118	-0.62141441	-0.45293910	1.10484913	0.01742162	-0.75843481	0.71437264	0.65792842	-4.16052856	-1.29192740	1.15517760	-1.79985653	0.40344778
1991	19.90000000	0.54711725	-0.22060188	-0.41370578	-0.09633673	-0.35175110	-0.06155453	0.16801783	-0.22455353	-2.24685957	0.00723581	0.61768813	0.60783695	-0.23559574	-0.66360743	1.36717439	-0.07853010	-0.36002493	0.62856050	0.30690644	-4.20563469	-1.24412646	-0.66334719	-1.51074437	0.15004588
1992	19.91000000	0.53715627	-0.15937969	-0.41473389	0.03770031	-0.36359866	-0.11584851	0.18541201	-0.15165613	-2.32570556	0.10130912	0.72959707	0.83269296	-0.19585110	-0.85001998	1.59806928	-0.03584507	-0.00064098	0.39814620	0.37250888	-4.46717123	-1.28469000	-1.47299231	-1.28721950	-0.14117335
1993	19.92000000	0.52953222	-0.08531062	-0.41418186	0.15873354	-0.38487627	-0.18020249	0.38101737	-0.10656865	-2.45871494	0.20922563	0.79024815	1.07113270	-0.21683798	-0.84561591	1.70616375	0.05850328	0.14567519	0.06819364	0.31385615	-4.53598510	-1.27734590	-1.63138554	-1.29314577	-0.03252032
1994	19.93000000	0.49862208	-0.02381814	-0.39351032	0.25772061	-0.40271531	-0.20643736	0.55922876	-0.18404128	-2.58391353	0.25690692	0.77228380	1.29554300	-0.04558210	-0.71301341	1.59797675	-0.00427689	0.00125380	-0.21528523	0.27981947	-4.43655336	-1.27152755	-1.07040676	-1.04629776	0.01557190
1995	19.94000000	0.51697199	0.02070611	-0.39530369	0.31097021	-0.41264687	-0.22571805	0.65566481	-0.19731003	-2.66284110	0.25997230	0.73041499	1.48913796	0.06513824	-0.67100725	1.44304530	-0.24016677	-0.32734126	-0.30439705	-0.20144280	-4.13322232	-1.25993331	-0.53209270	-0.74303589	-0.13567842
1996	19.95000000	0.52899140	0.06498953	-0.40085304	0.33257559	-0.40842204	-0.23929124	0.79223399	-0.21694570	-2.65192295	0.28239130	0.66264001	1.63937010	-0.00961533	-0.77153216	1.35075190	-0.38213711	-0.54447119	-0.27120020	0.01959835	-4.11817657	-1.36574604	-0.72239724	-0.66985513	-0.08141218
1997	19.96000000	0.53405621	0.12403573	-0.41057318	0.34036929	-0.39540157	-0.24891195	0.90253106	-0.25561849	-2.53041872	0.40336150	0.55265519	1.71014396	0.13915034	-0.85678903	1.28413365	-0.22834892	-0.55903620	-0.19672070	-0.47943464	-3.83714162	-1.38478367	-0.48736967	-0.62906928	-0.06781612
1998	19.97000000	0.55838014	0.17626278	-0.41999290	0.32546966	-0.36361985	-0.23002300	0.89683329	-0.24383533	-2.34140031	0.61166773	0.39984667	1.70791852	0.54928392	-0.72334450	1.20202987	0.02176127	-0.41184211	-0.00497070	-0.52826314	-3.59965396	-1.49620750	-0.29070229	-0.52592945	-0.08120098
1999	19.98000000	0.56464550	0.20178546	-0.41922080	0.29304110	-0.30974539	-0.18625518	0.89231304	-0.23646037	-2.12660497	0.82731271	0.24891352	1.64842712	0.71362064	-0.55987901	1.11352753	0.25973676	-0.29975552	0.28813136	-0.04171562	-3.20511516	-1.65199115	-0.15145115	-0.40513305	-0.11069624
2000	19.99000000	0.58338103	0.20563013	-0.43187837	0.24805430	-0.22998465	-0.13826595	0.86959868	-0.28058171	-1.88195533	0.98244078	0.16402643	1.57497139	0.63080893	-0.58422121	1.01673714	0.47708552	-0.32088503	0.46254780	0.08935177	-3.08765480	-1.68981525	0.01588784	-0.38906533	-0.11140134
2001	20	0.58658993	0.20469477	-0.43172571	0.20667159	-0.14725380	-0.07282567	0.69157886	-0.32185445	-1.63790778	1.04027281	0.15515873	1.53467813	0.53853493	-0.53006599	0.99333540	0.63602631	-0.37804976	0.48733826	-0.10728920	-2.50776181	-1.18362081	0.10665723	-0.30597359	-0.12287921
2002	20.01000000	0.58514778	0.21699038	-0.43821821	0.17013265	-0.10887791	-0.00466866	0.39253041	-0.33143845	-1.43403432	0.99732043	0.20956484	1.52772893	0.59109749	-0.34853750	1.01525879	0.76574677	-0.38674976	0.48502314	0.48440661	-0.94510136	-0.71443596	0.11344533	-0.26648228	-0.10951484
2003	20.02000000	0.58482051	0.22601004	-0.44362861	0.13440803	-0.11372175	0.06164652	0.07028646	-0.44323141	-1.20533610	0.89795163	0.27913066	1.54634808	0.69226487	-0.35494450	0.99695920	0.83669513	-0.31819330	0.51802615	0.42677177	-0.83158187	-0.58206225	0.23422688	-0.24841398	-0.11308850
2004	20.03000000	0.59108254	0.24611698	-0.44890993	0.08160418	-0.12499134	0.11742204	-0.22642818	-0.55300600	-0.89683721	0.81981490	0.33353251	1.56910801	0.67369263	-0.40319572	0.96088897	0.73236740	-0.22214034	0.52028849	0.82726439	-0.76253697	-0.54625352	0.22305901	-0.21713851	-0.09322236
2005	20.04000000	0.58504356	0.27122815	-0.45276872	0.03095558	-0.12398073	0.18287657	-0.53140841	-0.45084138	-0.48379087	0.71377200	0.41339605	1.59901540	0.67721476	-0.35838243	0.89973234	0.56747488	-0.18801772	0.46716510	0.60522917	-0.26088050	-0.27464057	0.23575836	-0.19184259	-0.06762208
2006	20.05000000	0.56309650	0.28290372	-0.44631206	-0.00081172	-0.11077054	0.22676630	-0.74937346	-0.20173716	-0.03528193	0.55486491	0.50218526	1.59379932	0.64527062	-0.29528820	0.79899047	0.42759470	-0.20605284	0.41797206	0.42435421	0.30685853	0.00302456	0.20572721	-0.16661637	-0.03742031
2007	20.06000000	0.54984354	0.28173153	-0.43856871	-0.00121400	-0.09147455	0.29449236	-0.62537808	-0.04797906	0.34763951	0.43006048	0.54176137	1.53133151	0.46796006	-0.25966673	0.68891769	0.33553818	-0.24572219	0.38498494	0.31677465	0.66654429	0.16441797	0.23191101	-0.17722020	-0.00605885
2008	20.07000000	0.54752602	0.28499723	-0.42673397	0.01340451	-0.07935564	0.35875001	-0.49778988	-0.04087041	0.65754870	0.34797073	0.54462272	1.42179436	0.32509976	-0.25493402	0.60435700	0.29409108	-0.32129361	0.36351795	0.26575936	0.93201617	0.27253358	0.21580358	-0.13654450	0.02355791
2009	20.08000000	0.52695146	0.29742148	-0.41564495	0.03350441	-0.07414656	0.41248504	-0.51428133	-0.04923779	0.91744450	0.30300355	0.51840654	1.34855258	0.24639128	-0.24448548	0.55707087	0.25058200	-0.39399809	0.37681058	0.21084002	1.21194691	0.39299524	0.21863781	-0.15030332	0.04529682
2010	20.09000000	0.51536066	0.29896238	-0.41229520	0.06160299	-0.06820841	0.46053944	-0.52941150	0.04198970	1.18565531	0.31765468	0.48516692	1.29759070	0.18718293	-0.22536928	0.54043535	0.17966103	-0.44115979	0.42912136	0.13284724	1.56860202	0.54734243	0.25239339	-0.13285854	0.04030005
2011	20.10000000	0.49403450	0.29500870	-0.41045490	0.10503174	-0.04616535	0.47288348	-0.50443121	0.18170674	1.47158992	0.37975589	0.47083500	1.27915253	0.20154510	-0.18080832	0.53052080	0.08193235	-0.45386160	0.50097907	0.08230644	1.95217174	0.69715223	0.25251383	-0.15391893	0.05189365
2012	20.11000000	0.46104233	0.28533194	-0.39873850	0.10412590	-0.00558243	0.45257706	-0.47712668	0.31822199	1.77324570	0.46467600	0.46381936	1.26440098	0.28017037	-0.12706491	0.50732735	0.00480794	-0.44342371	0.56266384	0.05298939	2.33342058	0.82652545	0.22820201	-0.14098173	0.07097220
2013	20.12000000	0.43270560	0.27205702	-0.38992087	0.10534825	0.04063873	0.44043464	-0.42771847	0.43914976	2.09001099	0.53745374	0.44834508	1.23299629	0.33772114	-0.09819178	0.49378340	-0.03427158	-0.41123470	0.60058332	-0.00668342	2.69313930	0.94630822	0.18009756	-0.12014430	0.08699493
2014	20.13000000	0.40529220	0.26291011	-0.36831070	0.08036416	0.07566988	0.40457176	-0.36218918	0.53661100	2.41328344	0.59506473	0.43540180	1.19321654	0.41110874	-0.10360122	0.48942966	-0.00180965	-0.38746628	0.60969795	-0.08427244	3.05653935	1.06206179	0.19351881	-0.10747936	0.09177296
2015	20.14000000	0.37536094	0.25961746	-0.34821052	0.04675530	0.11982692	0.36795307	-0.25800599	0.61071871	2.73148020	0.63705281	0.41796863	1.13128121	0.55046655	-0.10734239	0.48711990	0.07427168	-0.36295204	0.59615423	-0.18554428	3.44009681	1.17978799	0.13510431	-0.09670018	0.11203247
2016	20.15000000	0.34640904	0.25228562	-0.32539390	0.00603583	0.16487169	0.33353094	-0.11870742	0.67686091	3.03147535	0.65654050	0.39691987	1.06511550	0.57082776	-0.07826883	0.49089689	0.17006908	-0.32539672	0.60799516	-0.27489927	3.82681421	1.28967212	0.12614320	-0.11993100	0.12630451
2017	20.16000000	0.32975219	0.24322755	-0.29589666	-0.03552091	0.19879725	0.30083883	0.01598397	0.76061145	3.30398391	0.64464858	0.38026451	0.99086257	0.57828858	-0.05842021	0.46927647	0.24756586	-0.27251700	0.63586050	-0.33036402	4.12261327	1.35312756	0.09636192	-0.09780346	0.13842135
2018	20.17000000	0.30892379	0.23908095	-0.27504990	-0.07533047	0.21258746	0.29520288	0.13580234	0.87335843	3.54665111	0.61612336	0.35923628	0.90506288	0.52461974	-0.03525417	0.45064801	0.31036493	-0.22289093	0.66484558	-0.36530804	4.29084729	1.36224861	0.04248086	-0.11357376	0.16897490
2019	20.18000000	0.28359073	0.23630653	-0.23946774	-0.10919369	0.20852366	0.29010407	0.25576662	0.95515158	3.76042481	0.55688380	0.35944518	0.83363007	0.41933081	-0.01667583	0.44147852	0.35764073	-0.18652438	0.69780286	-0.41188830	4.35461843	1.31518810	-0.01456065	-0.07614831	0.18891502
2020	20.19000000	0.25602005	0.23257971	-0.21878986	-0.13639120	0.19852272	0.29855396	0.32614889	0.96379699	3.96244305	0.49019772	0.36521761	0.74037679	0.33936870	0.00265687	0.42453229	0.41098971	-0.19410566	0.69719429	-0.51099544	4.36314919	1.24144090	-0.06434441	-0.08302436	0.22862036
2021	20.20000000	0.23936116	0.22911764	-0.19864064	-0.14117593	0.19983707	0.31654306	0.24046085	0.91703565	4.15173090	0.40959566	0.36510244	0.65598207	0.25256702	0.00589549	0.39690391	0.45336943	-0.22501784	0.67401811	-0.59515056	4.36131832	1.15648875	-0.08677401	-0.07208473	0.24278302
2022	20.21000000	0.21699094	0.22556622	-0.18320083	-0.16069366	0.20255220	0.31781379	0.06001660	0.87729538	4.30981619	0.32942201	0.35252632	0.55970673	0.17052233	0.00995382	0.37684010	0.46378197	-0.25646982	0.65472983	-0.59943373	4.36421783	1.10262772	-0.12053262	-0.05887361	0.24316279
2023	20.22000000	0.19696739	0.22344430	-0.15962334	-0.17023629	0.20427901	0.31058817	-0.08007584	0.89536688	4.43685608	0.24375570	0.33169709	0.45745169	0.08444038	0.02261095	0.38925223	0.43852393	-0.27403747	0.64655159	-0.54818354	4.32394039	1.08447306	-0.12322526	-0.03199317	0.25549423
2024	20.23000000	0.17465911	0.21784926	-0.13998066	-0.16873930	0.20733523	0.30917987	-0.24911725	0.94258032	4.54204549	0.15063881	0.31553920	0.33778646	0.06094993	0.03928869	0.39626353	0.39039278	-0.27727156	0.67097363	-0.50715258	4.20673943	1.08847531	-0.18388067	-0.01633313	0.28822529
2025	20.24000000	0.15335488	0.22851319	-0.12078013	-0.15575922	0.21629228	0.30225017	-0.51633574	0.95355782	4.60792904	0.06143293	0.31354445	0.21224915	0.01412711	0.06397748	0.38056166	0.29162485	-0.27625121	0.70577699	-0.52782378	4.09171329	1.13115911	-0.19907041	-0.03493573	0.28772138
2026	20.25000000	0.13823341	0.22389683	-0.10796278	-0.13979119	0.21235837	0.28329144	-0.81592188	0.92560692	4.64300138	-0.02654930	0.31746379	0.10893949	0.01158217	0.05241179	0.35260330	0.16569931	-0.28638364	0.74470087	-0.59907749	4.09788555	1.22210481	-0.20880239	-0.01495314	0.27783812
